<?xml version="1.0" encoding="UTF-8"?>
<svg xmlns="http://www.w3.org/2000/svg" width="512" height="512" viewBox="0 0 512 512">
  <title>Real Estate Exam Logo - Outline</title>
  <defs>
    <style>
      .stroke { stroke:#0A5DAA; fill:none; stroke-width:22; stroke-linecap:round; stroke-linejoin:round; }
      .fill { fill:#0A5DAA; }
    </style>
  </defs>

  <!-- Graduation cap outline -->
  <polygon class="stroke" points="256,86 88,154 256,222 424,154 256,86"/>
  <polyline class="stroke" points="228,200 228,244 256,256 284,244 284,200"/>
  <!-- Tassel -->
  <line class="stroke" x1="356" y1="161" x2="356" y2="233"/>
  <circle class="fill" cx="356" cy="256" r="14"/>

  <!-- House outline -->
  <polyline class="stroke" points="96,308 256,196 416,308"/>
  <rect class="stroke" x="120" y="308" width="272" height="148" rx="12" ry="12"/>
  <!-- Windows -->
  <rect class="stroke" x="212" y="354" width="40" height="40" rx="3" ry="3"/>
  <rect class="stroke" x="260" y="354" width="40" height="40" rx="3" ry="3"/>
  <rect class="stroke" x="212" y="402" width="40" height="40" rx="3" ry="3"/>
  <rect class="stroke" x="260" y="402" width="40" height="40" rx="3" ry="3"/>
</svg>
